<svg id="eVlzOj2Dp0B1" xmlns="http://www.w3.org/2000/svg" xmlns:xlink="http://www.w3.org/1999/xlink" viewBox="0 0 300 300" shape-rendering="geometricPrecision" text-rendering="geometricPrecision" project-id="8153d040fc8b4e8b8ecd62ad0f42e0ab" export-id="2c55e2633c5f4d9aad1cc1f68737b51c" cached="false"><defs><linearGradient id="eVlzOj2Dp0B2-fill" x1="0.754379" y1="0.818274" x2="0.175526" y2="0.24836" spreadMethod="pad" gradientUnits="objectBoundingBox" gradientTransform="translate(0 0)"><stop id="eVlzOj2Dp0B2-fill-0" offset="0%" stop-color="#00bd5f"/><stop id="eVlzOj2Dp0B2-fill-1" offset="100%" stop-color="#014122"/></linearGradient></defs><path d="M178.90895,103.31029c-6.07513,0-11-4.92487-11-11v-24.06607c3.09912.00006,6.17405.70438,8.98607,2.0791c1.75404.85765,3.36522,1.95635,4.79123,3.25534l-2.4841,2.48409c-2.14823,2.14808-.62674,5.821,2.41113,5.821h13.57475v-13.57461c0-3.03789-3.67279-4.55927-5.82101-2.41116l-2.85441,2.85447c-1.95864-1.82619-4.187-3.36521-6.62234-4.55585-3.74922-1.833-7.84913-2.77208-11.98131-2.77215v-9.48184c0-6.07513,4.92487-11,11-11h63.06249c-.3352,1.25047-.51427,2.56754-.51427,3.92762c0,8.14181,7.16636,14.74223,14.33272,22.11335c6.0334-6.20578,12.0668-11.86529,13.8237-18.35826.33068,1.04677.50903,2.1612.50903,3.31729v40.36766c0,6.07513-4.92487,11-11,11h-68.17454c2.0599-3.24921,3.4209-6.91585,3.96852-10.76608.26495-1.86449-1.03149-3.59087-2.89602-3.85602-1.86418-.26515-3.59061,1.03135-3.8559,2.8958-.60798,4.27612-2.55366,8.24965-5.55845,11.35229-.12239.12639-.24627.25106-.37162.37401l-3.32567.00002Zm80.21368-62.36768c4.91904,0,9.08395,3.22883,10.49097,7.68271.32991-1.21926.50903-2.46791.50903-3.75509c0-8.14191-6.41697-14.74223-14.33272-14.74223-6.59343,0-12.14702,4.57937-13.81845,10.81461h17.15117Z" transform="matrix(2.346666 0 0 2.346666-363.956908-6.567549)" fill="url(#eVlzOj2Dp0B2-fill)" stroke-width="0"/></svg>
